<?xml version="1.0" encoding="UTF-8"?>
<svg width="24px" height="24px" viewBox="0 0 24 24" version="1.1" xmlns="http://www.w3.org/2000/svg">
    <g stroke="none" stroke-width="1" fill="none" fill-rule="evenodd">
        <path d="M19,3 C20.1045695,3 21,3.8954305 21,5 L21,19 C21,20.1045695 20.1045695,21 19,21 L5,21 C3.8954305,21 3,20.1045695 3,19 L3,5 C3,3.8954305 3.8954305,3 5,3 L19,3 Z M18.5,18.5 L18.5,13.2 C18.5,11.4 17.04,10 15.24,10 C14.39,10 13.4,10.5 12.92,11.3 L12.92,10.24 L10.38,10.24 L10.38,18.5 L13,18.5 L13,13.57 C13,12.8 13.57,12.17 14.34,12.17 C15.11,12.17 15.68,12.8 15.68,13.57 L15.68,18.5 L18.5,18.5 Z M6.88,8.56 C7.84,8.56 8.6,7.79 8.6,6.84 C8.6,5.89 7.84,5.12 6.88,5.12 C5.92,5.12 5.16,5.89 5.16,6.84 C5.16,7.79 5.92,8.56 6.88,8.56 Z M8.19,18.5 L8.19,10.24 L5.57,10.24 L5.57,18.5 L8.19,18.5 Z" fill="#000000"/>
    </g>
</svg>